<mxfile host="app.diagrams.net" modified="2024-02-27T17:27:33.191Z" agent="Mozilla/5.0 (Windows NT 10.0; Win64; x64) AppleWebKit/537.36 (KHTML, like Gecko) Chrome/121.0.0.0 Safari/537.36" version="23.1.5" etag="q4vwTpNfd5ch3S4m90qV" type="github">
  <diagram name="PÃ¡gina-1" id="c5-AE6NmAJPWwx7wWNze">
    <mxGraphModel>
      <root>
        <mxCell id="0" />
        <mxCell id="1" parent="0" />
      </root>
    </mxGraphModel>
  </diagram>
</mxfile>
